<?xml version="1.0" ?><svg id="Layer_1" style="enable-background:new 0 0 24 24;" version="1.1" viewBox="0 0 24 24" xml:space="preserve" xmlns="http://www.w3.org/2000/svg" xmlns:xlink="http://www.w3.org/1999/xlink"><title/><g id="Cake"><g><line style="fill:none;stroke:#303C42;stroke-linecap:round;stroke-linejoin:round;" x1="15.5" x2="16" y1="23.5" y2="23.5"/><line style="fill:none;stroke:#303C42;stroke-linecap:round;stroke-linejoin:round;" x1="19" x2="19.5" y1="22.5" y2="22"/><line style="fill:none;stroke:#303C42;stroke-linecap:round;stroke-linejoin:round;" x1="23.5" x2="23" y1="23.5" y2="23.5"/><path d="M0.5,12c0.313,0.85,1.096,1.438,2,1.5    c1.46,0,0.79-1.5,3-1.5" style="fill:none;stroke:#303C42;stroke-linecap:round;stroke-linejoin:round;"/><path d="M16.49,7.3    C16.487,6.412,17.125,5.651,18,5.5c0.84,0,2,0.72,3.17-0.44" style="fill:none;stroke:#303C42;stroke-linecap:round;stroke-linejoin:round;"/><line style="fill:none;stroke:#303C42;stroke-linecap:round;stroke-linejoin:round;" x1="2.5" x2="3" y1="10.5" y2="10"/><line style="fill:none;stroke:#303C42;stroke-linecap:round;stroke-linejoin:round;" x1="4.5" x2="4.5" y1="6.5" y2="7"/><line style="fill:none;stroke:#303C42;stroke-linecap:round;stroke-linejoin:round;" x1="7.5" x2="8" y1="4" y2="4.5"/><line style="fill:none;stroke:#303C42;stroke-linecap:round;stroke-linejoin:round;" x1="11.5" x2="11" y1="2.5" y2="3"/><line style="fill:none;stroke:#303C42;stroke-linecap:round;stroke-linejoin:round;" x1="14.5" x2="15" y1="3" y2="3.5"/><path d="M12,0.5C5.649,0.5,0.5,5.649,0.5,12    S5.649,23.5,12,23.5c0-1.29,0.36-2.58,1.5-3c-0.148-0.729-0.125-1.482,0.07-2.2c-0.513,0.131-1.04,0.198-1.57,0.2    c-3.595,0.024-6.529-2.872-6.553-6.467s2.872-6.529,6.467-6.553s6.529,2.872,6.553,6.467c0.008,1.259-0.348,2.493-1.027,3.553    c0.73,0.09,1.54,0,2.06,0.46c0.54-0.57,1.15-0.5,2-0.5c0.463,0.006,0.918,0.119,1.33,0.33c2.11-5.973-1.022-12.525-6.995-14.635    C14.603,0.72,13.306,0.498,12,0.5z" style="fill:none;stroke:#303C42;stroke-linecap:round;stroke-linejoin:round;"/></g></g></svg>